<svg width="128" height="128" viewBox="0 0 128 128" fill="none" xmlns="http://www.w3.org/2000/svg">
<rect width="128" height="128" fill="#0066B3"/>
<g filter="url(#filter0_d_6404_3930)">
<path d="M106.4 55.7694C106.41 55.7689 106.42 55.7669 106.43 55.7669H116.423L114.957 56.971H110.217C110.383 57.155 110.507 57.3572 110.594 57.573H114.226L112.761 58.7771H110.707C110.675 58.9721 110.622 59.1726 110.548 59.3779H112.03L110.567 60.5895H109.917H109.912H104.882L105.054 60.3138C105.56 59.5033 105.24 59.0087 104.123 59.0085C102.982 59.0085 102.068 59.5032 101.562 60.3138C101.006 61.2033 101.396 61.6974 102.992 62.0137L104.277 62.2312C107.306 62.8244 108.24 64.4256 106.475 67.2524C104.686 70.1191 101.012 72.2344 96.3079 72.2344C93.4048 72.2343 91.8513 71.4183 91.5546 70.102C89.6309 71.4133 87.1016 72.2344 84.172 72.2344C81.7476 72.2343 80.2628 71.6658 79.6664 70.7116L78.888 71.9587H66.5449L67.7781 69.9806C65.5954 71.4269 62.9456 72.2344 60.0518 72.2344C57.5367 72.2344 55.9754 71.602 55.4501 70.317C55.2412 69.8104 55.2006 69.2302 55.3023 68.5767C54.5924 69.2289 53.8335 69.8112 53.0014 70.317C50.8718 71.6021 48.4966 72.2344 45.9814 72.2344C43.4663 72.2344 41.905 71.602 41.3797 70.317C41.2739 70.0603 41.2137 69.7843 41.1902 69.4898L40.6608 70.4561C40.3003 71.1083 40.1436 71.5831 40.1188 71.9587H35.0888C35.089 71.6226 35.3783 71.0089 35.6649 70.4751L36.7591 68.4982C37.5545 67.0749 37.279 66.62 35.905 66.62H33.9491L30.6172 71.9587H25.5632L29.7581 65.2376C28.1049 66.1415 26.1891 66.62 24.0849 66.62H21.2673L17.9355 71.9587H12.8815L22.8164 56.0426H30.688C32.7912 56.0426 34.1034 56.5309 34.6238 57.4415L35.4981 56.0426H43.6262C46.6289 56.0427 47.9107 57.0947 47.648 58.8188C48.1577 58.4065 48.6948 58.0278 49.2653 57.6843C51.3948 56.3993 53.7463 55.7657 56.2613 55.7656C58.7765 55.7656 60.3617 56.3992 60.8869 57.6843C61.0876 58.1904 61.1202 58.7718 61.0146 59.4259C61.7286 58.7724 62.4958 58.19 63.3356 57.6843C65.4651 56.3993 67.8166 55.7657 70.3316 55.7656C73.2255 55.7656 74.8632 56.5799 75.2365 58.0321L76.4798 56.0426H88.6827L87.9322 57.2442C89.6713 56.3219 91.7741 55.7656 94.0109 55.7656C97.0376 55.7658 98.4873 56.7574 98.5999 58.1738C100.551 56.7076 103.235 55.7656 106.147 55.7656C106.232 55.7656 106.317 55.7678 106.4 55.7694ZM81.8168 65.5133H75.6219L73.7089 68.5779H79.5564C79.6839 68.2081 79.8737 67.8172 80.1275 67.4105L80.3246 67.0943H85.3546L85.1335 67.4497C84.5535 68.3789 84.834 69.0117 86.1848 69.0117C87.5352 69.0116 88.6056 68.3788 89.1856 67.4497C89.7651 66.5209 89.4817 65.9679 87.8741 65.6714L86.6143 65.4134C84.6792 65.0548 83.4693 64.2774 83.4328 62.9243L81.8168 65.5133ZM91.9868 59.0085C90.8456 59.0085 89.9316 59.5032 89.4256 60.3138C88.8705 61.2033 89.2602 61.6974 90.8559 62.0137L92.1409 62.2312C95.1138 62.8133 96.0669 64.3652 94.4342 67.0943H97.4906L97.2694 67.4497C96.6894 68.3789 96.9699 69.0117 98.3207 69.0117C99.6712 69.0116 100.742 68.3788 101.322 67.4497C101.901 66.5209 101.618 65.9679 100.01 65.6714L98.7503 65.4134C95.8954 64.8844 94.6177 63.4442 96.361 60.5895H92.7461L92.918 60.3138C93.4239 59.5033 93.1043 59.0087 91.9868 59.0085ZM54.1272 59.1869C53.2189 59.1869 52.4292 59.4437 51.5699 60.0368C50.5435 60.7485 49.6656 61.8555 48.3328 63.9905C46.9756 66.1646 46.4841 67.252 46.6094 67.9835C46.7282 68.5765 47.1959 68.8346 48.1041 68.8347C49.0124 68.8347 49.8249 68.5766 50.6842 67.9835C51.6996 67.252 52.5651 66.1651 53.9225 63.9905C55.2551 61.8558 55.7603 60.7486 55.6459 60.0368C55.5271 59.4438 55.0352 59.187 54.1272 59.1869ZM68.1976 59.1869C67.2893 59.1869 66.4995 59.4437 65.6402 60.0368C64.6138 60.7485 63.7482 61.8357 62.4031 63.9905C61.0337 66.1844 60.5544 67.252 60.6797 67.9835C60.7985 68.5765 61.2663 68.8346 62.1744 68.8347C63.9443 68.8347 65.398 67.885 66.4072 66.343H70.0498L72.9622 61.6772H69.3208C70.2256 60.1157 69.967 59.187 68.1976 59.1869ZM43.16 64.184C42.4991 64.5092 41.8059 64.7498 41.1005 64.8999C41.7366 65.0078 42.1586 65.2114 42.3842 65.526C42.6139 65.0969 42.8736 64.6497 43.16 64.184ZM23.39 63.2203H25.4394C26.8599 63.2203 27.9631 62.6466 28.7776 61.3421C29.6167 59.9979 29.2173 59.4438 27.7971 59.4436H25.7477L23.39 63.2203ZM36.0718 63.2203H38.1212C39.5416 63.2203 40.6325 62.6663 41.4593 61.3421C42.3108 59.9781 41.899 59.4438 40.4789 59.4436H38.4295L36.0718 63.2203ZM77.7572 62.0934H83.5415C83.6685 61.6216 83.9071 61.0954 84.2718 60.5111C84.5028 60.141 84.7721 59.7843 85.0754 59.4436H79.4111L77.7572 62.0934Z" fill="white"/>
</g>
<path d="M106.889 55.1172C106.899 55.1167 106.909 55.1147 106.919 55.1147H116.912L115.446 56.3187H110.706C110.872 56.5028 110.997 56.705 111.084 56.9208H114.715L113.25 58.1249H111.196C111.164 58.3199 111.111 58.5204 111.037 58.7256H112.519L111.056 59.9373H110.407H110.401H105.371L105.543 59.6616C106.049 58.8511 105.729 58.3564 104.612 58.3563C103.471 58.3563 102.557 58.851 102.051 59.6616C101.496 60.5511 101.885 61.0451 103.481 61.3615L104.766 61.579C107.796 62.1721 108.729 63.7733 106.965 66.6002C105.175 69.4669 101.502 71.5822 96.7972 71.5822C93.8941 71.5821 92.3405 70.766 92.0439 69.4498C90.1201 70.761 87.5908 71.5822 84.6613 71.5822C82.2369 71.5821 80.752 71.0136 80.1556 70.0594L79.3773 71.3065H67.0342L68.2673 69.3283C66.0846 70.7747 63.4348 71.5822 60.541 71.5822C58.0259 71.5822 56.4646 70.9498 55.9394 69.6648C55.7304 69.1581 55.6899 68.578 55.7915 67.9244C55.0817 68.5767 54.3227 69.159 53.4907 69.6648C51.361 70.9498 48.9859 71.5822 46.4707 71.5822C43.9556 71.5822 42.3943 70.9498 41.869 69.6648C41.7631 69.4081 41.703 69.1321 41.6795 68.8376L41.1501 69.8039C40.7896 70.4561 40.6329 70.9309 40.608 71.3065H35.578C35.5782 70.9704 35.8675 70.3567 36.1542 69.8229L37.2484 67.846C38.0437 66.4226 37.7683 65.9678 36.3942 65.9678H34.4383L31.1065 71.3065H26.0525L30.2473 64.5854C28.5942 65.4893 26.6784 65.9678 24.5742 65.9678H21.7566L18.4247 71.3065H13.3707L23.3056 55.3904H31.1773C33.2805 55.3904 34.5926 55.8787 35.1131 56.7892L35.9874 55.3904H44.1155C47.1181 55.3905 48.3999 56.4425 48.1372 58.1666C48.647 57.7543 49.1841 57.3756 49.7545 57.0321C51.884 55.7471 54.2355 55.1135 56.7505 55.1134C59.2657 55.1134 60.8509 55.747 61.3762 57.0321C61.5768 57.5382 61.6094 58.1196 61.5038 58.7737C62.2179 58.1202 62.9851 57.5378 63.8249 57.0321C65.9544 55.7471 68.3059 55.1135 70.8209 55.1134C73.7148 55.1134 75.3525 55.9277 75.7258 57.3799L76.9691 55.3904H89.172L88.4214 56.5919C90.1606 55.6697 92.2634 55.1134 94.5001 55.1134C97.5269 55.1135 98.9765 56.1052 99.0892 57.5216C101.041 56.0554 103.725 55.1134 106.636 55.1134C106.722 55.1134 106.806 55.1156 106.889 55.1172ZM82.3061 64.8611H76.1111L74.1982 67.9257H80.0457C80.1732 67.5559 80.3629 67.165 80.6168 66.7583L80.8139 66.4421H85.8439L85.6228 66.7975C85.0427 67.7267 85.3233 68.3595 86.674 68.3595C88.0245 68.3593 89.0949 67.7266 89.6748 66.7975C90.2544 65.8687 89.9709 65.3157 88.3633 65.0192L87.1036 64.7612C85.1685 64.4026 83.9586 63.6252 83.9221 62.2721L82.3061 64.8611ZM92.476 58.3563C91.3349 58.3563 90.4209 58.851 89.9149 59.6616C89.3597 60.5511 89.7495 61.0451 91.3452 61.3615L92.6302 61.579C95.6031 62.161 96.5562 63.713 94.9234 66.4421H97.9798L97.7587 66.7975C97.1787 67.7267 97.4592 68.3595 98.81 68.3595C100.16 68.3593 101.231 67.7266 101.811 66.7975C102.39 65.8687 102.107 65.3157 100.499 65.0192L99.2395 64.7612C96.3846 64.2322 95.1069 62.792 96.8503 59.9373H93.2354L93.4072 59.6616C93.9131 58.8511 93.5935 58.3564 92.476 58.3563ZM54.6165 58.5347C53.7082 58.5347 52.9184 58.7915 52.0591 59.3846C51.0327 60.0963 50.1548 61.2033 48.822 63.3383C47.4649 65.5124 46.9733 66.5998 47.0986 67.3312C47.2175 67.9243 47.6852 68.1824 48.5934 68.1824C49.5016 68.1824 50.3141 67.9243 51.1734 67.3312C52.1889 66.5998 53.0543 65.5129 54.4118 63.3383C55.7444 61.2036 56.2496 60.0963 56.1352 59.3846C56.0164 58.7916 55.5244 58.5347 54.6165 58.5347ZM68.6868 58.5347C67.7785 58.5347 66.9888 58.7915 66.1295 59.3846C65.1031 60.0963 64.2375 61.1835 62.8924 63.3383C61.5229 65.5322 61.0437 66.5998 61.169 67.3312C61.2878 67.9243 61.7555 68.1824 62.6637 68.1824C64.4336 68.1824 65.8872 67.2328 66.8964 65.6908H70.5391L73.4515 61.025H69.8101C70.7149 59.4635 70.4562 58.5348 68.6868 58.5347ZM43.6493 63.5318C42.9883 63.857 42.2951 64.0976 41.5898 64.2477C42.2259 64.3556 42.6479 64.5592 42.8735 64.8738C43.1032 64.4447 43.3628 63.9975 43.6493 63.5318ZM23.8793 62.5681H25.9287C27.3491 62.5681 28.4523 61.9944 29.2668 60.6898C30.1059 59.3456 29.7065 58.7915 28.2864 58.7914H26.237L23.8793 62.5681ZM36.561 62.5681H38.6104C40.0309 62.5681 41.1218 62.0141 41.9486 60.6898C42.8 59.3259 42.3883 58.7915 40.9681 58.7914H38.9187L36.561 62.5681ZM78.2465 61.4411H84.0308C84.1578 60.9694 84.3964 60.4431 84.7611 59.8589C84.9921 59.4888 85.2614 59.132 85.5647 58.7914H79.9004L78.2465 61.4411Z" fill="white" fill-opacity="0.3"/>
<defs>
<filter id="filter0_d_6404_3930" x="10.9248" y="54.4612" width="107.455" height="20.3821" filterUnits="userSpaceOnUse" color-interpolation-filters="sRGB">
<feFlood flood-opacity="0" result="BackgroundImageFix"/>
<feColorMatrix in="SourceAlpha" type="matrix" values="0 0 0 0 0 0 0 0 0 0 0 0 0 0 0 0 0 0 127 0" result="hardAlpha"/>
<feOffset dy="0.652229"/>
<feGaussianBlur stdDeviation="0.978344"/>
<feComposite in2="hardAlpha" operator="out"/>
<feColorMatrix type="matrix" values="0 0 0 0 0 0 0 0 0 0 0 0 0 0 0 0 0 0 0.25 0"/>
<feBlend mode="normal" in2="BackgroundImageFix" result="effect1_dropShadow_6404_3930"/>
<feBlend mode="normal" in="SourceGraphic" in2="effect1_dropShadow_6404_3930" result="shape"/>
</filter>
</defs>
</svg>
