<svg width="853" height="136" viewBox="0 0 853 136" fill="none" xmlns="http://www.w3.org/2000/svg">
<path d="M769.842 0.0312035C769.925 0.0269698 770.008 0.0104928 770.092 0.0104012H852.355L840.289 9.91231H801.264C802.636 11.4256 803.657 13.0885 804.374 14.8633H834.267L822.212 24.7652H805.3C805.038 26.3688 804.6 28.018 803.989 29.7057H816.19L804.15 39.6701H798.801H798.758H757.351L758.765 37.4026C762.93 30.7376 760.299 26.6696 751.099 26.6686C741.705 26.6686 734.182 30.7367 730.016 37.4026C725.446 44.7179 728.655 48.7806 741.79 51.3818L752.368 53.1708C777.308 58.0486 784.992 71.2163 770.466 94.4634C755.735 118.038 725.495 135.434 686.768 135.434C662.87 135.433 650.081 128.722 647.639 117.897C631.803 128.681 610.981 135.434 586.865 135.434C566.908 135.433 554.684 130.758 549.774 122.911L543.367 133.166H441.758L451.91 116.899C433.942 128.793 412.129 135.434 388.307 135.434C367.603 135.433 354.75 130.233 350.426 119.665C348.706 115.499 348.372 110.728 349.209 105.353C343.365 110.717 337.118 115.506 330.268 119.665C312.737 130.233 293.185 135.434 272.479 135.434C251.775 135.433 238.923 130.233 234.598 119.665C233.727 117.554 233.231 115.285 233.038 112.863L228.68 120.81C225.712 126.173 224.423 130.078 224.218 133.166H182.811C182.813 130.402 185.194 125.355 187.554 120.966L196.561 104.709C203.109 93.0031 200.841 89.2628 189.53 89.2628H173.429L146.001 133.166H104.397L138.928 77.8943C125.32 85.3278 109.549 89.2628 92.2271 89.2628H69.0325L41.6047 133.166H0L81.7844 2.27786H146.584C163.897 2.27813 174.699 6.29326 178.983 13.7815L186.181 2.27786H253.092C277.809 2.27886 288.361 10.9302 286.198 25.1084C290.395 21.718 294.816 18.6033 299.512 15.7786C317.042 5.21139 336.4 0.00069756 357.103 0C377.808 0 390.858 5.21068 395.182 15.7786C396.834 19.9405 397.102 24.7215 396.232 30.101C402.111 24.7266 408.426 19.9372 415.339 15.7786C432.869 5.21139 452.227 0.000700962 472.931 0C496.753 0 510.235 6.69643 513.308 18.6389L523.543 2.27786H623.997L617.819 12.159C632.136 4.57445 649.446 0 667.859 0C692.775 0.00107198 704.709 8.15606 705.636 19.8038C721.7 7.7465 743.795 0 767.762 0C768.466 3.05304e-05 769.159 0.0182724 769.842 0.0312035ZM567.477 80.1618H516.48L500.733 105.364H548.87C549.919 102.323 551.481 99.1081 553.571 95.7635L555.193 93.1633H596.6L594.78 96.086C590.005 103.727 592.315 108.931 603.434 108.931C614.551 108.93 623.363 103.726 628.137 96.086C632.908 88.4476 630.574 83.9003 617.34 81.4619L606.97 79.3401C591.04 76.3912 581.081 69.9978 580.78 58.8706L567.477 80.1618ZM651.196 26.6686C641.802 26.6686 634.278 30.7367 630.113 37.4026C625.543 44.7179 628.752 48.7806 641.887 51.3818L652.465 53.1708C676.938 57.9574 684.784 70.72 671.343 93.1633H696.504L694.683 96.086C689.909 103.727 692.218 108.931 703.337 108.931C714.454 108.93 723.266 103.726 728.04 96.086C732.811 88.4476 730.478 83.9003 717.244 81.4619L706.874 79.3401C683.372 74.9896 672.854 63.1462 687.205 39.6701H657.447L658.862 37.4026C663.027 30.7376 660.396 26.6696 651.196 26.6686ZM339.536 28.1352C332.059 28.1352 325.558 30.2473 318.484 35.1247C310.034 40.9778 302.807 50.081 291.836 67.6388C280.664 85.5179 276.617 94.4599 277.649 100.475C278.627 105.353 282.477 107.475 289.953 107.475C297.43 107.475 304.119 105.353 311.192 100.475C319.552 94.4597 326.676 85.5217 337.851 67.6388C348.821 50.0833 352.979 40.9779 352.038 35.1247C351.06 30.2481 347.01 28.1359 339.536 28.1352ZM455.363 28.1352C447.886 28.1352 441.385 30.2473 434.311 35.1247C425.862 40.9778 418.736 49.9184 407.663 67.6388C396.39 85.6805 392.445 94.46 393.476 100.475C394.454 105.353 398.305 107.475 405.781 107.475C420.35 107.475 432.317 99.6654 440.625 86.985H470.611L494.586 48.6151H464.61C472.058 35.7737 469.929 28.1365 455.363 28.1352ZM249.254 69.2302C243.813 71.9042 238.106 73.8825 232.3 75.1172C237.536 76.0048 241.01 77.6789 242.867 80.2658C244.758 76.7375 246.896 73.0595 249.254 69.2302ZM86.5065 61.3045H103.377C115.07 61.3044 124.152 56.5865 130.857 45.8587C137.765 34.8045 134.477 30.2478 122.786 30.2466H105.915L86.5065 61.3045ZM190.903 61.3045H207.774C219.467 61.3044 228.447 56.749 235.254 45.8587C242.263 34.642 238.873 30.2477 227.182 30.2466H210.312L190.903 61.3045ZM534.058 52.037H581.675C582.72 48.1573 584.684 43.8299 587.687 39.0252C589.589 35.9817 591.805 33.0479 594.302 30.2466H547.673L534.058 52.037Z" fill="#0066B3"/>
</svg>
